# xmcd
#
# Track frame offsets: 
#        150
#        22214
#        42121
#        60726
#        72380
#        92289
#        103358
#        120055
#        141671
#        156507
#        173353
#        187122
#        200810
#        220673
#        235734
#        259289
#        276981
#        296501
#        314207
#
# Disc length: 4446 seconds
#
# Revision: 3
# Processed by: cddbd v1.5.2PL0 Copyright (c) Steve Scherf et al.
# Submitted via: ExactAudioCopy v0.99pb4
#
DISCID=2c115c13
DTITLE=Various Artist - Romantic Collection Golden [CD 2]
DYEAR=1900
DGENRE=Disco
TTITLE0=ABBA - The Winner Takes It All
TTITLE1=Richard Marx - Hold On To The Nights
TTITLE2=Amanda Lear - Una Rosa Un Tango
TTITLE3=The Platters - Sixteen Tons
TTITLE4=James Last - Lonesome Shepherd
TTITLE5=Far Corporation - Stairway To Haven
TTITLE6=Status QUO - In The Army Now
TTITLE7=Foreigner - Waiting For A Girl Like You
TTITLE8=Fausto Papetti - Theeme From Paradise
TTITLE9=Gloria Gaynor - I Will Survive
TTITLE10=Roy Orbison - Oh, Pretty Woman
TTITLE11=Rafaella Carra - Tango
TTITLE12=James Last and Richard Clayderman - Reflections
TTITLE13=Joe Dassin - Salut
TTITLE14=Mylene Farmer - Regreti
TTITLE15=Julio Iglesias - Nostalgie
TTITLE16=Candy Dulfer - Lily Was Here
TTITLE17=Cliff Richard - Miss You Nights
TTITLE18=London Symphony Orchestra - The Winer Takes It All
EXTD=
EXTT0=
EXTT1=
EXTT2=
EXTT3=
EXTT4=
EXTT5=
EXTT6=
EXTT7=
EXTT8=
EXTT9=
EXTT10=
EXTT11=
EXTT12=
EXTT13=
EXTT14=
EXTT15=
EXTT16=
EXTT17=
EXTT18=
PLAYORDER=
